<svg width="385" height="80" viewBox="0 0 385 80" fill="none" xmlns="http://www.w3.org/2000/svg">
<path fill-rule="evenodd" clip-rule="evenodd" d="M59.3999 10.9102C53.2517 9.53519 46.4815 8.02269 39.0303 6.35961C30.7607 4.51319 21.5351 2.44415 11.1768 0.132847C8.06674 -0.561198 5.42152 1.53403 5.41497 4.78818C5.38878 16.4953 5.36258 28.222 5.33639 39.9422C5.3102 51.6755 5.28401 63.435 5.25782 75.1879C5.25128 78.4617 7.89651 80.5569 11.0197 79.8694C21.4173 77.5778 30.669 75.5415 38.9648 73.7147C46.4356 72.0712 53.2255 70.5718 59.3868 69.2165C61.0106 68.8564 62.3004 66.7219 62.3004 64.4498C62.3004 56.3112 62.3004 48.1725 62.3004 40.047C62.3004 31.9214 62.3004 23.7958 62.3004 15.6768C62.3004 13.4179 61.0171 11.2703 59.3933 10.9102H59.3999Z" fill="url(#paint0_linear_2149_39)"/>
<path fill-rule="evenodd" clip-rule="evenodd" d="M5.44105 8.33092C4.68807 8.04937 3.92855 7.91187 3.14939 7.62378C1.49285 7.00176 0.0785679 8.61246 0.0785679 11.2119C0.0654727 20.5618 0.0523791 29.9249 0.0392839 39.2814C0.0261888 48.651 0.0130952 58.0402 0 67.4229C0 70.0354 1.41428 71.6461 3.07082 71.0307C3.87618 70.7295 4.66843 70.4348 5.44759 70.1467V8.33092H5.44105Z" fill="#F59185"/>
<path opacity="0.15" fill-rule="evenodd" clip-rule="evenodd" d="M5.1204 8.47432C5.10731 15.3362 4.99601 64.7247 4.98291 70.1657L20.5989 66.355C26.5507 64.9015 31.9001 63.5985 36.7256 62.4199C37.9828 62.1122 38.9845 60.4033 38.9845 58.6092C38.9845 52.186 38.9845 45.7563 38.9845 39.3462C38.9845 32.9296 38.9845 26.5129 38.9845 20.1028C38.9845 18.3219 37.9828 16.6064 36.7256 16.2921C31.9131 15.1005 26.5769 13.7844 20.6447 12.3112L5.1204 8.46777V8.47432Z" fill="white"/>
<path d="M47.1165 42.6136C42.507 43.2029 38.8993 47.891 39.063 53.0374C39.2201 58.138 43.0897 61.8701 47.601 61.2677C52.1778 60.6522 55.7724 56.0034 55.6087 50.8636C55.4385 45.6255 51.6933 42.0309 47.1231 42.6136H47.1165Z" fill="#9B1B1F"/>
<path d="M54.4432 23.6451C52.8718 18.5511 48.1575 15.9713 43.3451 17.5886C38.6308 19.1665 35.3963 24.4112 35.8153 29.8064C35.9659 31.7183 35.8153 33.6236 35.4094 35.5421C34.879 38.0367 33.6022 39.7784 31.4284 40.6754C29.5231 41.4611 27.585 42.0111 25.6076 42.3647C24.763 42.5153 23.9183 42.692 23.0999 43.0194C18.1041 44.9902 15.1708 50.8111 15.9892 55.9444C16.4541 58.8515 17.7309 61.1432 19.885 62.6884C22.0326 64.2336 24.4552 64.5741 27.0677 63.8539C29.0386 63.3104 30.7409 62.1777 32.1618 60.4491C34.1064 58.0723 35.0165 55.2896 35.1016 52.2253C35.1606 50.248 35.3504 48.2837 35.6647 46.3194C36.0772 43.7528 37.2885 41.8409 39.4558 40.7671C41.1058 39.9486 42.8212 39.3921 44.5629 39.0385C45.3944 38.8683 46.2391 38.77 47.0641 38.5147C49.0218 37.9058 50.7045 36.7403 52.1123 34.9986C54.0176 32.648 55.0129 29.9766 54.9343 26.6504C54.9343 26.2838 54.8557 25.6749 54.764 25.0725C54.692 24.588 54.5807 24.1165 54.4367 23.6582L54.4432 23.6451Z" fill="#9B1B1F"/>
<path d="M23.7219 38.672C28.2987 38.063 31.8867 33.4208 31.7427 28.2809C31.5921 23.0821 27.801 19.4155 23.2112 20.0179C18.6541 20.6202 15.0463 25.3083 15.1969 30.4285C15.3475 35.5291 19.2172 39.2678 23.7219 38.672Z" fill="#9B1B1F"/>
<path d="M47.5555 41.9525C42.946 42.5418 39.3382 47.2298 39.5019 52.3762C39.6591 57.4768 43.5287 61.2089 48.04 60.6066C52.6168 59.9911 56.2114 55.3423 56.0477 50.2024C55.8775 44.9644 52.1322 41.3697 47.562 41.9525H47.5555Z" fill="white"/>
<path d="M54.8822 22.984C53.3108 17.8899 48.5965 15.3102 43.784 16.9274C39.0697 18.5054 35.8352 23.75 36.2543 29.1453C36.4049 31.0571 36.2543 32.9625 35.8483 34.8809C35.318 37.3756 34.0412 39.1172 31.8674 40.0143C29.9621 40.8 28.024 41.35 26.0466 41.7035C25.202 41.8541 24.3573 42.0309 23.5389 42.3583C18.5431 44.3291 15.6097 50.1499 16.4282 55.2832C16.8931 58.1904 18.1698 60.482 20.324 62.0273C22.4716 63.5725 24.8942 63.913 27.5067 63.1927C29.4775 62.6493 31.1799 61.5165 32.6007 59.788C34.5454 57.4112 35.4555 54.6285 35.5406 51.5642C35.5995 49.5868 35.7894 47.6226 36.1037 45.6583C36.5162 43.0916 37.7275 41.1797 39.8947 40.1059C41.5447 39.2875 43.2602 38.7309 45.0019 38.3774C45.8334 38.2071 46.678 38.1089 47.503 37.8535C49.4608 37.2446 51.1435 36.0792 52.5512 34.3375C54.4566 31.9869 55.4518 29.3155 55.3733 25.9893C55.3733 25.6226 55.2947 25.0137 55.203 24.4113C55.131 23.9268 55.0197 23.4554 54.8756 22.9971L54.8822 22.984Z" fill="white"/>
<path d="M24.1609 38.0108C28.7376 37.4019 32.3257 32.7597 32.1817 27.6198C32.0311 22.421 28.24 18.7544 23.6501 19.3567C19.093 19.9591 15.4853 24.6472 15.6359 29.7674C15.7865 34.868 19.6561 38.6067 24.1609 38.0108Z" fill="white"/>
<path d="M94.5736 23.6846V53.7446H88.9623V40.6035H74.8457V53.7446H69.2344V23.6846H74.8457V36.6161H88.9623V23.6846H94.5736ZM98.1747 35.3917C100.63 33.1458 103.583 32.0262 107.034 32.0262C108.284 32.0262 109.397 32.2292 110.379 32.6417C111.362 33.0542 112.193 33.6173 112.874 34.344C113.555 35.0708 114.072 35.9417 114.426 36.95C114.779 37.9649 114.956 39.0714 114.956 40.2762V53.7511H112.625C112.141 53.7511 111.768 53.6791 111.506 53.535C111.244 53.391 111.034 53.0964 110.884 52.6511L110.425 51.1124C109.882 51.597 109.358 52.0225 108.847 52.3892C108.337 52.7559 107.8 53.0636 107.243 53.3124C106.687 53.5612 106.097 53.7511 105.469 53.8821C104.84 54.013 104.14 54.0785 103.38 54.0785C102.476 54.0785 101.645 53.9541 100.885 53.7118C100.126 53.4696 99.4646 53.1029 98.9081 52.6184C98.3515 52.1339 97.9259 51.5315 97.6182 50.8112C97.3105 50.091 97.1598 49.2529 97.1598 48.297C97.1598 47.7535 97.2515 47.2166 97.4283 46.6863C97.6116 46.1559 97.9063 45.6452 98.3122 45.1607C98.7182 44.6762 99.2485 44.2178 99.9033 43.7857C100.558 43.3535 101.357 42.9803 102.306 42.666C103.256 42.3452 104.362 42.0898 105.626 41.8869C106.89 41.6839 108.33 41.566 109.947 41.5202V40.2696C109.947 38.8422 109.64 37.7881 109.031 37.1006C108.422 36.4131 107.538 36.0726 106.392 36.0726C105.56 36.0726 104.873 36.1708 104.323 36.3673C103.773 36.5637 103.295 36.7798 102.876 37.022C102.457 37.2643 102.084 37.4803 101.743 37.6768C101.403 37.8732 101.023 37.9649 100.61 37.9649C100.25 37.9649 99.9426 37.8732 99.6938 37.6833C99.445 37.4934 99.242 37.2774 99.0914 37.0286L98.1747 35.3851V35.3917ZM109.941 44.6434C108.454 44.7154 107.21 44.8398 106.196 45.0297C105.181 45.2196 104.375 45.4553 103.76 45.75C103.144 46.0446 102.712 46.3785 102.45 46.7714C102.188 47.1577 102.057 47.5833 102.057 48.0416C102.057 48.9452 102.326 49.5868 102.856 49.9732C103.387 50.3595 104.087 50.5559 104.945 50.5559C105.999 50.5559 106.909 50.366 107.682 49.9862C108.448 49.6065 109.201 49.0237 109.934 48.2511V44.6565L109.941 44.6434ZM123.39 35.3262C124.26 34.344 125.256 33.5452 126.362 32.9363C127.469 32.3274 128.772 32.0197 130.271 32.0197C131.436 32.0197 132.497 32.2619 133.46 32.7464C134.422 33.231 135.254 33.9316 135.954 34.8548C136.655 35.778 137.192 36.9107 137.578 38.2661C137.958 39.6149 138.148 41.1666 138.148 42.9148C138.148 44.5059 137.932 45.9857 137.506 47.341C137.074 48.7029 136.465 49.8749 135.666 50.8767C134.867 51.872 133.905 52.6511 132.779 53.2142C131.646 53.7773 130.382 54.0588 128.981 54.0588C127.789 54.0588 126.768 53.8755 125.923 53.5089C125.079 53.1422 124.326 52.6315 123.658 51.9833V60.7177H118.525V32.4191H121.661C122.329 32.4191 122.761 32.7333 122.97 33.3554L123.383 35.3327L123.39 35.3262ZM123.658 48.2184C124.241 48.9255 124.876 49.4232 125.563 49.7178C126.251 50.0124 126.997 50.1565 127.796 50.1565C128.595 50.1565 129.269 50.0124 129.898 49.7178C130.52 49.4297 131.05 48.9845 131.489 48.3886C131.928 47.7928 132.261 47.0398 132.497 46.1363C132.733 45.2261 132.851 44.1589 132.851 42.9214C132.851 41.6839 132.753 40.6166 132.55 39.7524C132.347 38.8881 132.059 38.1809 131.685 37.644C131.312 37.1071 130.854 36.7077 130.323 36.4589C129.787 36.2101 129.184 36.0857 128.503 36.0857C127.436 36.0857 126.526 36.3083 125.779 36.7601C125.033 37.2119 124.326 37.847 123.658 38.6655V48.2315V48.2184ZM145.763 35.3262C146.633 34.344 147.629 33.5452 148.735 32.9363C149.842 32.3274 151.145 32.0197 152.644 32.0197C153.81 32.0197 154.87 32.2619 155.833 32.7464C156.795 33.231 157.627 33.9316 158.327 34.8548C159.028 35.778 159.565 36.9107 159.951 38.2661C160.331 39.6149 160.521 41.1666 160.521 42.9148C160.521 44.5059 160.305 45.9857 159.879 47.341C159.447 48.7029 158.838 49.8749 158.039 50.8767C157.241 51.8785 156.278 52.6511 155.152 53.2142C154.019 53.7773 152.755 54.0588 151.354 54.0588C150.163 54.0588 149.141 53.8755 148.297 53.5089C147.452 53.1422 146.699 52.6315 146.031 51.9833V60.7177H140.898V32.4191H144.034C144.702 32.4191 145.134 32.7333 145.344 33.3554L145.756 35.3327L145.763 35.3262ZM146.031 48.2184C146.614 48.9255 147.249 49.4232 147.936 49.7178C148.624 50.0124 149.37 50.1565 150.169 50.1565C150.968 50.1565 151.642 50.0124 152.271 49.7178C152.893 49.4297 153.423 48.9845 153.862 48.3886C154.301 47.7928 154.635 47.0398 154.87 46.1363C155.106 45.2261 155.224 44.1589 155.224 42.9214C155.224 41.6839 155.126 40.6166 154.923 39.7524C154.72 38.8881 154.432 38.1809 154.058 37.644C153.685 37.1006 153.227 36.7077 152.697 36.4589C152.16 36.2101 151.557 36.0857 150.876 36.0857C149.809 36.0857 148.899 36.3083 148.152 36.7601C147.406 37.2119 146.699 37.847 146.031 38.6655V48.2315V48.2184ZM162.767 35.3917C165.222 33.1458 168.175 32.0262 171.626 32.0262C172.876 32.0262 173.989 32.2292 174.971 32.6417C175.954 33.0542 176.785 33.6173 177.466 34.344C178.147 35.0708 178.664 35.9417 179.018 36.95C179.371 37.9649 179.548 39.0714 179.548 40.2762V53.7511H177.217C176.733 53.7511 176.36 53.6791 176.098 53.535C175.836 53.391 175.626 53.0964 175.476 52.6511L175.017 51.1124C174.474 51.597 173.95 52.0225 173.439 52.3892C172.929 52.7559 172.392 53.0636 171.835 53.3124C171.279 53.5612 170.689 53.7511 170.061 53.8821C169.432 54.013 168.732 54.0785 167.972 54.0785C167.069 54.0785 166.237 53.9541 165.477 53.7118C164.718 53.4696 164.057 53.1029 163.5 52.6184C162.944 52.1339 162.518 51.5315 162.21 50.8112C161.902 50.091 161.752 49.2529 161.752 48.297C161.752 47.7535 161.844 47.2166 162.02 46.6863C162.204 46.1559 162.498 45.6452 162.904 45.1607C163.31 44.6762 163.841 44.2178 164.495 43.7857C165.15 43.3535 165.949 42.9803 166.898 42.666C167.848 42.3452 168.954 42.0898 170.218 41.8869C171.482 41.6839 172.922 41.566 174.539 41.5202V40.2696C174.539 38.8422 174.232 37.7881 173.623 37.1006C173.014 36.4131 172.13 36.0726 170.984 36.0726C170.152 36.0726 169.465 36.1708 168.915 36.3673C168.365 36.5637 167.887 36.7798 167.468 37.022C167.049 37.2643 166.676 37.4803 166.335 37.6768C165.995 37.8732 165.615 37.9649 165.202 37.9649C164.842 37.9649 164.535 37.8732 164.286 37.6833C164.037 37.4934 163.834 37.2774 163.683 37.0286L162.767 35.3851V35.3917ZM174.533 44.6434C173.046 44.7154 171.802 44.8398 170.788 45.0297C169.773 45.2196 168.967 45.4553 168.352 45.75C167.736 46.0446 167.304 46.3785 167.042 46.7714C166.78 47.1642 166.649 47.5833 166.649 48.0416C166.649 48.9452 166.918 49.5868 167.448 49.9732C167.979 50.3595 168.679 50.5559 169.537 50.5559C170.591 50.5559 171.501 50.366 172.274 49.9862C173.04 49.6065 173.793 49.0237 174.526 48.2511V44.6565L174.533 44.6434ZM201.895 32.4191L190.273 59.6112C190.123 59.9713 189.92 60.2463 189.684 60.4297C189.442 60.6195 189.068 60.7112 188.571 60.7112H184.747L188.741 52.147L180.111 32.4191H184.623C185.022 32.4191 185.343 32.5173 185.572 32.7137C185.801 32.9101 185.971 33.1327 186.083 33.3816L190.614 44.4404C190.764 44.8136 190.895 45.1869 191 45.5601C191.105 45.9333 191.203 46.313 191.301 46.7059C191.426 46.3196 191.55 45.9333 191.674 45.5535C191.799 45.1738 191.936 44.794 192.087 44.4208L196.369 33.3816C196.48 33.1066 196.664 32.8774 196.919 32.6941C197.174 32.5107 197.462 32.4256 197.783 32.4256H201.902L201.895 32.4191Z" fill="url(#paint1_linear_2149_39)"/>
<path d="M210.924 39.314C211.422 38.7902 211.978 38.3711 212.587 38.0634C213.196 37.7557 213.89 37.5985 214.669 37.5985C215.383 37.5985 216.031 37.7426 216.607 38.0241C217.183 38.3057 217.675 38.7116 218.08 39.2354C218.486 39.7658 218.801 40.4009 219.017 41.1473C219.233 41.8937 219.344 42.7384 219.344 43.6681C219.344 44.6765 219.22 45.5866 218.971 46.4116C218.722 47.23 218.362 47.9372 217.904 48.5199C217.439 49.1026 216.882 49.5544 216.234 49.8818C215.579 50.2026 214.859 50.3663 214.06 50.3663C213.674 50.3663 213.327 50.327 213.013 50.2485C212.698 50.1699 212.41 50.0651 212.142 49.9276C211.873 49.7901 211.631 49.6264 211.408 49.4235C211.186 49.227 210.976 49.0044 210.773 48.7687L210.642 49.6003C210.597 49.8098 210.511 49.9604 210.394 50.0455C210.276 50.1372 210.119 50.1764 209.916 50.1764H207.945V32.2295H210.931V39.3074L210.924 39.314ZM210.924 46.9747C211.264 47.3872 211.631 47.6753 212.031 47.8455C212.43 48.0157 212.849 48.1009 213.294 48.1009C213.739 48.1009 214.165 48.0157 214.532 47.852C214.898 47.6884 215.213 47.4265 215.468 47.0794C215.723 46.7324 215.92 46.2806 216.057 45.7372C216.195 45.1937 216.26 44.5455 216.26 43.786C216.26 42.4241 216.038 41.442 215.586 40.833C215.134 40.2241 214.486 39.9229 213.641 39.9229C213.072 39.9229 212.567 40.0539 212.142 40.3158C211.716 40.5777 211.31 40.9443 210.924 41.4223V46.9747Z" fill="#1D4380"/>
<path d="M232.551 37.7949L225.8 53.5943C225.708 53.8038 225.597 53.9609 225.453 54.0722C225.309 54.1835 225.099 54.2359 224.805 54.2359H222.585L224.903 49.2598L219.894 37.8015H222.513C222.749 37.8015 222.932 37.8604 223.063 37.9717C223.194 38.083 223.292 38.214 223.358 38.358L225.99 44.7812C226.075 44.9973 226.154 45.2133 226.212 45.436C226.271 45.652 226.33 45.8746 226.389 46.1038C226.461 45.8812 226.533 45.652 226.605 45.436C226.677 45.2133 226.756 44.9973 226.848 44.7747L229.336 38.3646C229.401 38.2009 229.506 38.0699 229.656 37.9652C229.807 37.8604 229.971 37.808 230.161 37.808H232.551V37.7949Z" fill="#1D4380"/>
<path d="M334.019 66.9057C339.78 66.9057 344.442 62.211 344.442 56.4164V31.0576C344.442 25.263 339.767 20.5684 334.012 20.5684H308.535C302.773 20.5684 298.105 25.263 298.105 31.0576V56.4164C298.105 62.211 302.78 66.9057 308.535 66.9057H334.012H334.019Z" fill="#ED2224"/>
<path d="M337.737 35.1435C337.089 35.8507 332.892 43.7209 332.277 44.9518C331.445 46.4643 330.64 46.9554 330.024 46.9554C328.636 46.9554 328.918 44.703 329.127 43.9304C330.424 38.8691 331.845 36.99 332.028 36.6495C333.017 35.2941 332.061 33.6572 330.673 33.6572C328.977 33.6572 328.329 34.7048 328.329 36.4661C327.838 37.8215 326.849 40.231 326.692 40.4733C326.076 41.7697 322.992 46.3006 321.938 47.322C321.722 47.5381 321.414 47.5709 321.414 47.2631C321.539 44.1465 323.235 38.3191 323.235 38.3191C323.267 38.1358 323.293 37.9459 323.293 37.7953C323.293 36.8721 322.861 36.2828 321.938 36.1911C320.982 36.0995 320.491 36.5644 319.627 37.612C317.715 39.9887 315.43 43.5375 314.349 45.1679C314.225 45.3512 314.009 45.2923 314.009 45.0435C314.009 44.3036 316.32 36.1322 316.32 36.1322C316.504 35.2679 315.954 34.5608 314.965 34.5608C313.852 34.5608 311.541 37.7102 307.933 42.706C307.808 42.8631 307.566 42.7977 307.625 42.6143C308.457 40.362 309.262 37.6774 309.262 36.2632C309.262 34.934 308.673 34.2596 307.533 34.2596C304.941 34.2596 302.538 37.1602 302.538 38.5155C302.538 39.2882 303.002 39.9953 303.775 39.9953C304.914 39.9953 305.196 37.8673 306.027 37.8673C306.185 37.8673 306.185 38.0507 306.185 38.0834C306.027 39.6221 304.181 45.8554 303.192 48.8214C302.701 50.3339 303.009 51.4143 304.273 51.4143C305.196 51.4143 306.06 50.55 306.924 49.1947C308.62 46.6018 311.18 42.562 311.462 42.562C311.554 42.562 311.586 42.5947 311.586 42.6864C311.246 44.5393 309.799 50.3077 312.634 50.3077C313.158 50.3077 313.747 50.1506 314.33 49.5351C315.011 48.7953 317.663 45.2137 319.267 42.3786C319.391 42.1953 319.483 42.3459 319.45 42.503C319.142 43.9828 318.062 48.147 318.062 49.103C318.062 51.2899 319.666 51.2899 319.725 51.2899C322.809 51.2899 325.893 45.8292 326.417 45.0893C325.461 48.3893 327.032 51.6566 330.398 50.3339C329.442 52.7107 327.805 56.2595 327.805 59.9262C327.805 62.1785 329.068 63.2851 330.332 63.2851C331.262 63.2851 332.093 62.7613 332.093 61.8381C330.797 59.4024 331.969 53.0185 335.236 45.6131C336.808 43.8518 340.638 37.9001 340.638 36.0209C340.638 34.9733 340.023 34.4495 339.217 34.4495C338.569 34.4495 338.202 34.6656 337.737 35.1566" fill="white"/>
<path d="M248.73 49.751H245.842V43.2493C245.842 42.3195 245.691 41.632 245.403 41.1737C245.109 40.7153 244.611 40.4862 243.911 40.4862C243.4 40.4862 242.935 40.6106 242.509 40.8659C242.084 41.1213 241.724 41.4749 241.429 41.9463V49.751H238.542V37.9392H240.185L241.272 39.5302C241.508 39.3207 241.861 39.0523 242.143 38.8624C242.431 38.679 242.732 38.5154 243.053 38.3779C243.374 38.2404 243.708 38.129 244.055 38.0505C244.402 37.9719 244.762 37.9326 245.135 37.9326C245.561 37.9326 245.934 37.9785 246.255 38.0701C246.575 38.1618 246.863 38.2927 247.112 38.463C247.361 38.6332 247.577 38.8427 247.761 39.0915C247.944 39.3403 248.108 39.6153 248.252 39.9231C248.481 39.6939 248.736 39.4648 249.024 39.229C249.312 38.9933 249.627 38.7773 249.974 38.5874C250.321 38.3975 250.7 38.2404 251.113 38.116C251.525 37.9915 251.971 37.9326 252.449 37.9326C253.097 37.9326 253.653 38.0636 254.112 38.332C254.57 38.6005 254.943 38.9671 255.225 39.432C255.513 39.9034 255.722 40.46 255.853 41.1082C255.984 41.7564 256.05 42.4636 256.05 43.2296V49.751H253.162V43.2493C253.162 42.3195 253.018 41.632 252.73 41.1737C252.442 40.7153 251.958 40.4862 251.277 40.4862C250.766 40.4862 250.301 40.604 249.875 40.8397C249.45 41.0755 249.077 41.4421 248.749 41.9397V49.7445L248.73 49.751Z" fill="#1D4380"/>
<path d="M265.564 48.4483C265.23 48.8085 264.706 49.1489 264.117 49.3977C263.527 49.64 262.82 49.7644 261.995 49.7644C261.419 49.7644 260.902 49.6727 260.443 49.4894C259.985 49.3061 259.592 49.0507 259.258 48.7168C258.931 48.3829 258.675 47.99 258.499 47.5382C258.322 47.0864 258.237 46.5888 258.237 46.0519C258.237 43.8519 259.939 42.4507 262.663 42.4507H265.544V41.796C265.544 41.39 265.341 41.0757 264.935 40.8466C264.529 40.6174 263.9 40.4996 263.062 40.4996C262.277 40.4996 261.55 40.5847 260.882 40.7484C260.214 40.9121 259.841 41.0496 259.271 41.2853L258.911 38.8234C259.121 38.7317 259.383 38.6335 259.684 38.5287C259.985 38.424 260.325 38.3258 260.705 38.2406C261.078 38.1555 261.484 38.077 261.923 38.0246C262.362 37.9656 262.82 37.9395 263.305 37.9395C264.974 37.9395 266.231 38.3454 267.07 39.1704C267.908 39.9889 268.327 41.1543 268.327 42.6603V49.7644H266.271L265.57 48.4614L265.564 48.4483ZM265.564 44.3823H262.971C262.277 44.3823 261.772 44.546 261.452 44.8144C261.131 45.0829 260.974 45.4495 260.974 45.9275C260.974 46.4055 261.111 46.7329 261.38 46.9751C261.648 47.2174 262.061 47.3418 262.611 47.3418C262.945 47.3418 263.259 47.296 263.56 47.2108C263.861 47.1192 264.136 47.0013 264.392 46.8507C264.647 46.7001 264.87 46.5233 265.073 46.3138C265.269 46.1043 265.433 45.8882 265.564 45.6525V44.3823Z" fill="#1D4380"/>
<path d="M281.985 37.7623L277.277 43.6682L282.633 49.7509H279.006L274.049 43.7533V49.7509H271.162V33.5391H274.049V43.7533L278.462 37.7623H281.985Z" fill="#1D4380"/>
<path d="M288.951 47.2171C289.462 47.2171 289.92 47.1778 290.339 47.0927C290.758 47.0076 291.132 46.9028 291.472 46.7719C291.813 46.6409 292.12 46.4903 292.395 46.3135C292.67 46.1367 292.572 46.2219 292.801 46.0451L293.358 48.5986C292.847 48.926 292.127 49.2141 291.4 49.4302C290.673 49.6528 289.848 49.7641 288.919 49.7641C287.904 49.7641 287.007 49.6201 286.234 49.3385C285.455 49.057 284.8 48.6576 284.263 48.1469C283.733 47.6361 283.32 47.0141 283.045 46.2939C282.77 45.5737 282.633 44.7749 282.633 43.8909C282.633 43.079 282.757 42.313 283.013 41.5927C283.261 40.8725 283.635 40.2374 284.119 39.6939C284.604 39.1505 285.206 38.7183 285.92 38.404C286.633 38.0898 287.458 37.9326 288.395 37.9326C289.331 37.9326 290.149 38.0832 290.83 38.3844C291.511 38.6856 292.074 39.085 292.52 39.5826C292.965 40.0802 293.292 40.6564 293.502 41.3046C293.711 41.9528 293.79 42.6207 293.79 43.3213C293.79 43.5112 293.777 43.7272 293.757 43.963C293.738 44.2052 293.711 44.4082 293.672 44.5784H285.619C285.658 44.9844 285.769 45.351 285.939 45.6784C286.11 46.0058 286.339 46.2808 286.627 46.51C286.915 46.7391 287.255 46.9159 287.648 47.0338C288.041 47.1582 288.48 47.2171 288.958 47.2171M288.414 40.4731C288.035 40.4731 287.688 40.5189 287.373 40.6171C287.059 40.7088 286.791 40.8463 286.555 41.0231C286.319 41.1999 286.129 41.4094 285.979 41.6516C285.828 41.9005 285.73 42.1689 285.671 42.4701H290.798C290.798 42.2016 290.752 41.9528 290.654 41.704C290.555 41.4618 290.411 41.2457 290.215 41.0689C290.019 40.8856 289.77 40.7415 289.468 40.6368C289.167 40.532 288.814 40.4731 288.414 40.4731Z" fill="#1D4380"/>
<path d="M347.598 39.6149L351.501 34.9727H352.358V37.9453H355.691V40.5185H352.358V45.3571C352.358 45.6911 352.398 45.9726 352.483 46.2018C352.561 46.4244 352.679 46.6012 352.817 46.7387C352.954 46.8696 353.118 46.9678 353.301 47.0268C353.484 47.0857 353.681 47.1119 353.884 47.1119C354.264 47.1119 354.604 47.0726 354.899 47.0006C355.193 46.9286 355.455 46.8369 355.678 46.7256V49.2988C355.364 49.4559 355.036 49.5738 354.696 49.6524C354.355 49.7309 353.93 49.7768 353.439 49.7768C352.738 49.7768 352.136 49.6916 351.631 49.528C351.127 49.3643 350.715 49.122 350.4 48.8077C350.08 48.4869 349.844 48.1071 349.693 47.6553C349.543 47.2036 349.464 46.6928 349.464 46.1167V40.5316H347.598V39.6345V39.6149Z" fill="#1D4380"/>
<path d="M360.622 40.3746C361.014 39.6674 361.708 38.9865 362.285 38.5609C362.861 38.1419 363.555 37.9258 364.36 37.9258C364.635 37.9258 364.864 37.9389 365.035 37.9651C365.205 37.9913 365.342 38.0174 365.434 38.0436C365.434 38.0436 365.342 38.7115 364.904 40.7478C364.727 40.7085 364.511 40.6889 364.269 40.6889C363.725 40.6889 363.241 40.7805 362.808 40.9704C362.383 41.1603 362.016 41.4287 361.722 41.7823C361.427 42.1359 361.198 42.5746 361.034 43.0853C360.87 43.596 360.792 44.1787 360.792 44.8269V49.7442H357.904V37.9323H359.757L360.622 40.368V40.3746Z" fill="#1D4380"/>
<path d="M379.315 37.9258C380.185 37.9258 380.932 38.0895 381.56 38.4234C382.189 38.7573 382.706 39.196 383.119 39.7526C383.531 40.3091 383.832 40.9442 384.029 41.671C384.225 42.3978 384.324 43.1508 384.324 43.9299C384.324 44.7091 384.219 45.4752 384.016 46.1823C383.813 46.8894 383.499 47.5049 383.086 48.0353C382.674 48.5656 382.156 48.9847 381.541 49.2989C380.925 49.6067 380.205 49.7638 379.374 49.7638C378.542 49.7638 377.887 49.646 377.331 49.4103C376.774 49.1745 376.29 48.8275 375.871 48.3757L375.831 48.4019V54.5239H372.944V37.9454H374.672L375.779 39.3859C376.198 38.9603 376.794 38.5413 377.37 38.299C377.946 38.0567 378.601 37.9323 379.328 37.9323M378.562 40.5121C378.195 40.5121 377.861 40.5645 377.566 40.6758C377.272 40.7871 377.01 40.9246 376.781 41.1014C376.552 41.2716 376.362 41.4746 376.198 41.6972C376.034 41.9198 375.903 42.1424 375.805 42.3781V45.7305C375.916 45.9335 376.067 46.1234 376.244 46.3067C376.427 46.49 376.63 46.6472 376.853 46.7847C377.082 46.9222 377.331 47.0335 377.612 47.1186C377.894 47.2037 378.188 47.243 378.509 47.243C379 47.243 379.419 47.1644 379.779 47.0007C380.14 46.8436 380.434 46.621 380.67 46.3329C380.906 46.0448 381.082 45.7043 381.194 45.2984C381.305 44.899 381.364 44.4537 381.364 43.9692C381.364 43.4847 381.299 42.9936 381.161 42.5746C381.03 42.149 380.834 41.7889 380.591 41.4811C380.343 41.1799 380.048 40.9377 379.707 40.7674C379.36 40.5972 378.981 40.5121 378.568 40.5121" fill="#1D4380"/>
<path d="M369.847 49.7512H366.959V37.9394H369.847V49.7512ZM368.406 33.0811C367.575 33.0811 366.9 33.7555 366.9 34.587C366.9 35.4185 367.575 36.0929 368.406 36.0929C369.238 36.0929 369.912 35.4185 369.912 34.587C369.912 33.7555 369.238 33.0811 368.406 33.0811Z" fill="#1D4380"/>
<defs>
<linearGradient id="paint0_linear_2149_39" x1="59.6159" y1="8.09472" x2="-2.46834" y2="72.3921" gradientUnits="userSpaceOnUse">
<stop stop-color="#F15F22"/>
<stop offset="1" stop-color="#ED1A6B"/>
</linearGradient>
<linearGradient id="paint1_linear_2149_39" x1="69.2344" y1="42.2012" x2="201.895" y2="42.2012" gradientUnits="userSpaceOnUse">
<stop stop-color="#F15F22"/>
<stop offset="1" stop-color="#ED1A6B"/>
</linearGradient>
</defs>
</svg>
